<mxfile host="app.diagrams.net" modified="2022-01-04T01:40:13.588Z" agent="5.0 (X11; Linux x86_64) AppleWebKit/537.36 (KHTML, like Gecko) Chrome/96.0.4664.110 Safari/537.36" etag="17YzEjqAYVZ9pl4lM2SL" version="16.1.4" type="github">
  <diagram id="yKufRBJTM_NPqO0KYhj7" name="Page-1">
    <mxGraphModel dx="1366" dy="773" grid="1" gridSize="10" guides="1" tooltips="1" connect="1" arrows="1" fold="1" page="1" pageScale="1" pageWidth="827" pageHeight="1169" math="0" shadow="0">
      <root>
        <mxCell id="0" />
        <mxCell id="1" parent="0" />
        <mxCell id="O0LXjb6FlQBKJXSmFQSw-1" value="クラウド" style="ellipse;shape=cloud;whiteSpace=wrap;html=1;align=left;verticalAlign=top;spacingLeft=250;spacingTop=60;" vertex="1" parent="1">
          <mxGeometry x="24" y="30" width="780" height="530" as="geometry" />
        </mxCell>
        <mxCell id="O0LXjb6FlQBKJXSmFQSw-2" value="DB" style="shape=cylinder3;whiteSpace=wrap;html=1;boundedLbl=1;backgroundOutline=1;size=15;" vertex="1" parent="1">
          <mxGeometry x="490" y="170" width="130" height="80" as="geometry" />
        </mxCell>
        <mxCell id="O0LXjb6FlQBKJXSmFQSw-4" value="クライアントPC" style="rounded=1;whiteSpace=wrap;html=1;align=left;verticalAlign=top;spacing=21;" vertex="1" parent="1">
          <mxGeometry x="70" y="633" width="700" height="325" as="geometry" />
        </mxCell>
        <mxCell id="O0LXjb6FlQBKJXSmFQSw-9" value="クライアントHTML/CSS/JS" style="shape=note;whiteSpace=wrap;html=1;backgroundOutline=1;darkOpacity=0.05;" vertex="1" parent="1">
          <mxGeometry x="530" y="290" width="120" height="100" as="geometry" />
        </mxCell>
        <mxCell id="O0LXjb6FlQBKJXSmFQSw-34" style="edgeStyle=orthogonalEdgeStyle;rounded=0;orthogonalLoop=1;jettySize=auto;html=1;exitX=1;exitY=0.5;exitDx=0;exitDy=0;entryX=0;entryY=0.5;entryDx=0;entryDy=0;entryPerimeter=0;" edge="1" parent="1" source="O0LXjb6FlQBKJXSmFQSw-10" target="O0LXjb6FlQBKJXSmFQSw-2">
          <mxGeometry relative="1" as="geometry" />
        </mxCell>
        <mxCell id="O0LXjb6FlQBKJXSmFQSw-10" value="処理" style="ellipse;whiteSpace=wrap;html=1;" vertex="1" parent="1">
          <mxGeometry x="243.5" y="220" width="130" height="80" as="geometry" />
        </mxCell>
        <mxCell id="O0LXjb6FlQBKJXSmFQSw-17" value="Google Chrome / Edge" style="rounded=0;whiteSpace=wrap;html=1;" vertex="1" parent="1">
          <mxGeometry x="340" y="768" width="160" height="70" as="geometry" />
        </mxCell>
        <mxCell id="O0LXjb6FlQBKJXSmFQSw-19" value="" style="endArrow=classic;startArrow=classic;html=1;rounded=0;entryX=0.5;entryY=1;entryDx=0;entryDy=0;exitX=0.5;exitY=0;exitDx=0;exitDy=0;" edge="1" parent="1" source="O0LXjb6FlQBKJXSmFQSw-17" target="O0LXjb6FlQBKJXSmFQSw-25">
          <mxGeometry width="50" height="50" relative="1" as="geometry">
            <mxPoint x="390" y="460" as="sourcePoint" />
            <mxPoint x="440" y="410" as="targetPoint" />
          </mxGeometry>
        </mxCell>
        <mxCell id="O0LXjb6FlQBKJXSmFQSw-23" value="双方向通信" style="text;html=1;strokeColor=none;fillColor=none;align=center;verticalAlign=middle;whiteSpace=wrap;rounded=0;" vertex="1" parent="1">
          <mxGeometry x="340" y="580" width="80" height="30" as="geometry" />
        </mxCell>
        <mxCell id="O0LXjb6FlQBKJXSmFQSw-25" value="ゲートウェイ" style="ellipse;whiteSpace=wrap;html=1;" vertex="1" parent="1">
          <mxGeometry x="354" y="431" width="120" height="80" as="geometry" />
        </mxCell>
        <mxCell id="O0LXjb6FlQBKJXSmFQSw-27" value="双方向通信" style="text;html=1;strokeColor=none;fillColor=none;align=center;verticalAlign=middle;whiteSpace=wrap;rounded=0;" vertex="1" parent="1">
          <mxGeometry x="293.5" y="370" width="80" height="30" as="geometry" />
        </mxCell>
        <mxCell id="O0LXjb6FlQBKJXSmFQSw-30" value="" style="endArrow=classic;startArrow=classic;html=1;rounded=0;entryX=0.5;entryY=1;entryDx=0;entryDy=0;exitX=0.5;exitY=0;exitDx=0;exitDy=0;" edge="1" parent="1" source="O0LXjb6FlQBKJXSmFQSw-25" target="O0LXjb6FlQBKJXSmFQSw-10">
          <mxGeometry width="50" height="50" relative="1" as="geometry">
            <mxPoint x="390" y="510" as="sourcePoint" />
            <mxPoint x="440" y="460" as="targetPoint" />
          </mxGeometry>
        </mxCell>
        <mxCell id="O0LXjb6FlQBKJXSmFQSw-31" value="" style="endArrow=classic;html=1;rounded=0;entryX=0.5;entryY=1;entryDx=0;entryDy=0;entryPerimeter=0;exitX=1;exitY=0.5;exitDx=0;exitDy=0;" edge="1" parent="1" source="O0LXjb6FlQBKJXSmFQSw-17" target="O0LXjb6FlQBKJXSmFQSw-9">
          <mxGeometry relative="1" as="geometry">
            <mxPoint x="330" y="530" as="sourcePoint" />
            <mxPoint x="490" y="530" as="targetPoint" />
            <Array as="points">
              <mxPoint x="590" y="600" />
            </Array>
          </mxGeometry>
        </mxCell>
        <mxCell id="O0LXjb6FlQBKJXSmFQSw-32" value="取得" style="edgeLabel;resizable=0;html=1;align=center;verticalAlign=middle;" connectable="0" vertex="1" parent="O0LXjb6FlQBKJXSmFQSw-31">
          <mxGeometry relative="1" as="geometry" />
        </mxCell>
      </root>
    </mxGraphModel>
  </diagram>
</mxfile>
